<svg width="24" height="24" viewBox="0 0 24 24" fill="none" xmlns="http://www.w3.org/2000/svg">
<g clip-path="url(#clip0_288_2325)">
<path fill-rule="evenodd" clip-rule="evenodd" d="M12.324 2.001L12 2C11.782 2 11.568 2.002 11.358 2.005L10.742 2.022C10.641 2.025 10.541 2.03 10.443 2.035L9.864 2.069L9.311 2.115C4.526 2.579 2.579 4.526 2.115 9.311L2.069 9.864L2.035 10.443L2.022 10.742L2.005 11.358L2.001 11.676L2 12C2 12.218 2.002 12.432 2.005 12.642L2.022 13.258C2.0258 13.3577 2.03014 13.4574 2.035 13.557L2.069 14.136L2.115 14.689C2.579 19.474 4.526 21.421 9.311 21.885L9.864 21.931L10.443 21.965L10.742 21.978L11.358 21.995L12 22L12.642 21.995L13.258 21.978C13.359 21.975 13.459 21.97 13.557 21.965L14.136 21.931L14.689 21.885C19.474 21.421 21.421 19.474 21.885 14.689L21.931 14.136L21.965 13.557L21.978 13.258L21.995 12.642L22 12L21.995 11.358L21.978 10.742C21.975 10.641 21.97 10.541 21.965 10.443L21.931 9.864L21.885 9.311C21.421 4.526 19.474 2.579 14.689 2.115L14.136 2.069L13.557 2.035L13.258 2.022L12.642 2.005L12.324 2.001ZM9.81401 9.01663C10.0536 8.9714 10.3015 9.01528 10.511 9.14L10.613 9.21L10.5116 9.14098C10.3026 9.01598 10.0546 8.97204 9.8153 9.01745C9.57506 9.06286 9.36022 9.19372 9.2108 9.38659C9.06139 9.57897 8.98717 9.81969 9.00182 10.0629C8.98652 9.8195 9.06031 9.5781 9.20995 9.38558C9.35959 9.19307 9.57441 9.06186 9.81401 9.01663ZM10.585 12L9.293 13.293L9.21 13.387C9.05459 13.588 8.98151 13.8406 9.0056 14.0935C9.02969 14.3464 9.14916 14.5807 9.33972 14.7488C9.35577 14.7629 9.37221 14.7765 9.38903 14.7895C9.37255 14.7767 9.35642 14.7633 9.34069 14.7494C9.15026 14.5814 9.03014 14.3475 9.0067 14.0946C8.98229 13.8417 9.05553 13.5887 9.2108 13.3881L9.29381 13.2938L10.5858 12.0008L10.585 12ZM14.7268 9.31565C14.7057 9.29325 14.6835 9.27176 14.6603 9.25125C14.4697 9.08321 14.2223 8.99402 13.9684 9.00177C13.7144 9.00953 13.473 9.11365 13.293 9.293L12 10.585L12.0008 10.5858L13.2938 9.29381C13.4735 9.11461 13.7157 9.01061 13.9696 9.0028C14.2235 8.99499 14.4706 9.08385 14.661 9.25231C14.684 9.2725 14.7059 9.29364 14.7268 9.31565Z" fill="#94A3B8"/>
<path fill-rule="evenodd" clip-rule="evenodd" d="M9.49432 8.58084C9.769 8.52899 10.0532 8.57929 10.2934 8.72227L10.4103 8.80252L10.518 8.89767L12.0004 10.3788L13.4827 8.89767C13.689 8.69207 13.9658 8.5727 14.2569 8.56381C14.5481 8.55492 14.8317 8.65717 15.0501 8.84981C15.2686 9.04244 15.4055 9.31101 15.4332 9.60096C15.4608 9.89091 15.377 10.1805 15.1988 10.4109L15.1037 10.5187L13.6225 12.001L15.1037 13.4833C15.3093 13.6896 15.4287 13.9664 15.4375 14.2576C15.4464 14.5487 15.3442 14.8323 15.1515 15.0508C14.9589 15.2692 14.6903 15.4062 14.4004 15.4338C14.1104 15.4614 13.8208 15.3776 13.5904 15.1995L13.4827 15.1043L12.0004 13.6232L10.518 15.1043C10.3117 15.3099 10.0349 15.4293 9.74378 15.4382C9.45265 15.4471 9.16906 15.3448 8.95059 15.1522C8.73213 14.9595 8.59517 14.691 8.56755 14.401C8.53993 14.1111 8.62371 13.8215 8.80188 13.5911L8.89703 13.4833L10.3782 12.001L8.89703 10.5187C8.6992 10.3212 8.58034 10.0582 8.56281 9.77926C8.54527 9.50028 8.63027 9.22451 8.80182 9.00381C8.97337 8.78311 9.21964 8.63269 9.49432 8.58084Z" fill="white"/>
</g>
<defs>
<clipPath id="clip0_288_2325">
<rect width="24" height="24" fill="white"/>
</clipPath>
</defs>
</svg>
