<svg width="32" height="32" viewBox="0 0 32 32" fill="none" xmlns="http://www.w3.org/2000/svg">
<g clip-path="url(#clip0_288_1892)">
<path d="M3.99885 27.9999C3.99885 27.9999 17.1109 23.3479 20.9109 19.5466C22.0322 18.4247 22.6621 16.9034 22.6621 15.3173C22.6621 13.7311 22.0322 12.2098 20.9109 11.0879C20.3558 10.5325 19.6966 10.0918 18.9712 9.79119C18.2457 9.49055 17.4681 9.33582 16.6829 9.33582C15.8976 9.33582 15.12 9.49055 14.3945 9.79119C13.6691 10.0918 13.01 10.5325 12.4549 11.0879C8.64152 14.9026 3.99219 28.0066 3.99219 28.0066L3.99885 27.9999Z" stroke="#334155" stroke-width="2" stroke-linecap="round" stroke-linejoin="round"/>
<path d="M12 17.3333L10 15.3333" stroke="#334155" stroke-width="2" stroke-linecap="round" stroke-linejoin="round"/>
<path d="M21.3327 18.6667L18.666 16" stroke="#334155" stroke-width="2" stroke-linecap="round" stroke-linejoin="round"/>
<path d="M29.332 10.6667C29.332 10.6667 27.812 8 25.332 8C23.4574 8 21.332 10.6667 21.332 10.6667C21.332 10.6667 22.852 13.3333 25.332 13.3333C27.812 13.3333 29.332 10.6667 29.332 10.6667Z" stroke="#334155" stroke-width="2" stroke-linecap="round" stroke-linejoin="round"/>
<path d="M21.3327 2.66663C21.3327 2.66663 18.666 4.18663 18.666 6.66663C18.666 9.14663 21.3327 10.6666 21.3327 10.6666C21.3327 10.6666 23.9993 8.56396 23.9993 6.66663C23.9993 4.18663 21.3327 2.66663 21.3327 2.66663Z" stroke="#334155" stroke-width="2" stroke-linecap="round" stroke-linejoin="round"/>
</g>
<defs>
<clipPath id="clip0_288_1892">
<rect width="32" height="32" fill="white"/>
</clipPath>
</defs>
</svg>
