<svg width="32" height="32" viewBox="0 0 32 32" fill="none" xmlns="http://www.w3.org/2000/svg">
<g clip-path="url(#clip0_288_1891)">
<path d="M16 16C18.6667 12.0534 16 6.66671 14.6667 5.33337C14.6667 9.38404 12.3027 11.6547 10.6667 13.3334C9.032 15.0134 8 17.6534 8 20C8 22.1218 8.84286 24.1566 10.3431 25.6569C11.8434 27.1572 13.8783 28 16 28C18.1217 28 20.1566 27.1572 21.6569 25.6569C23.1571 24.1566 24 22.1218 24 20C24 17.9574 22.592 14.7467 21.3333 13.3334C18.952 17.3334 17.612 17.3334 16 16Z" stroke="#334155" stroke-width="2" stroke-linecap="round" stroke-linejoin="round"/>
</g>
<defs>
<clipPath id="clip0_288_1891">
<rect width="32" height="32" fill="white"/>
</clipPath>
</defs>
</svg>
