<svg width="32" height="32" viewBox="0 0 32 32" fill="none" xmlns="http://www.w3.org/2000/svg">
<g clip-path="url(#clip0_288_1893)">
<path d="M22.6654 10.6667V6.66671C22.6654 6.31309 22.5249 5.97395 22.2748 5.7239C22.0248 5.47385 21.6857 5.33337 21.332 5.33337H7.9987C7.29145 5.33337 6.61318 5.61433 6.11308 6.11442C5.61298 6.61452 5.33203 7.2928 5.33203 8.00004M5.33203 8.00004C5.33203 8.70728 5.61298 9.38556 6.11308 9.88566C6.61318 10.3858 7.29145 10.6667 7.9987 10.6667H23.9987C24.3523 10.6667 24.6915 10.8072 24.9415 11.0572C25.1916 11.3073 25.332 11.6464 25.332 12V16M5.33203 8.00004V24C5.33203 24.7073 5.61298 25.3856 6.11308 25.8857C6.61318 26.3858 7.29145 26.6667 7.9987 26.6667H23.9987C24.3523 26.6667 24.6915 26.5262 24.9415 26.2762C25.1916 26.0261 25.332 25.687 25.332 25.3334V21.3334" stroke="#334155" stroke-width="2" stroke-linecap="round" stroke-linejoin="round"/>
<path d="M26.668 16V21.3333H21.3346C20.6274 21.3333 19.9491 21.0524 19.449 20.5523C18.9489 20.0522 18.668 19.3739 18.668 18.6667C18.668 17.9594 18.9489 17.2811 19.449 16.781C19.9491 16.281 20.6274 16 21.3346 16H26.668Z" stroke="#334155" stroke-width="2" stroke-linecap="round" stroke-linejoin="round"/>
</g>
<defs>
<clipPath id="clip0_288_1893">
<rect width="32" height="32" fill="white"/>
</clipPath>
</defs>
</svg>
