<svg width="210" height="36" viewBox="0 0 210 36" fill="none" xmlns="http://www.w3.org/2000/svg">
<g clip-path="url(#clip0_333_5415)">
<path d="M16 18C18.6667 14.0534 16 8.66671 14.6667 7.33337C14.6667 11.384 12.3027 13.6547 10.6667 15.3334C9.032 17.0134 8 19.6534 8 22C8 24.1218 8.84286 26.1566 10.3431 27.6569C11.8434 29.1572 13.8783 30 16 30C18.1217 30 20.1566 29.1572 21.6569 27.6569C23.1571 26.1566 24 24.1218 24 22C24 19.9574 22.592 16.7467 21.3333 15.3334C18.952 19.3334 17.612 19.3334 16 18Z" fill="#EA580C" stroke="#EA580C" stroke-width="2" stroke-linecap="round" stroke-linejoin="round"/>
</g>
<path d="M49.144 26.288C47.496 26.288 46.072 25.928 44.872 25.208C43.672 24.472 42.744 23.456 42.088 22.16C41.448 20.848 41.128 19.328 41.128 17.6C41.128 15.872 41.448 14.36 42.088 13.064C42.744 11.752 43.672 10.736 44.872 10.016C46.072 9.28 47.496 8.912 49.144 8.912C51.08 8.912 52.648 9.368 53.848 10.28C55.048 11.192 55.816 12.48 56.152 14.144H53.92C53.664 13.104 53.144 12.272 52.36 11.648C51.576 11.008 50.504 10.688 49.144 10.688C47.944 10.688 46.896 10.968 46 11.528C45.104 12.072 44.408 12.864 43.912 13.904C43.432 14.928 43.192 16.16 43.192 17.6C43.192 19.04 43.432 20.28 43.912 21.32C44.408 22.344 45.104 23.136 46 23.696C46.896 24.24 47.944 24.512 49.144 24.512C50.504 24.512 51.576 24.208 52.36 23.6C53.144 22.976 53.664 22.152 53.92 21.128H56.152C55.816 22.744 55.048 24.008 53.848 24.92C52.648 25.832 51.08 26.288 49.144 26.288ZM62.8894 26.288C61.8974 26.288 61.0734 26.12 60.4174 25.784C59.7614 25.448 59.2734 25 58.9534 24.44C58.6334 23.88 58.4734 23.272 58.4734 22.616C58.4734 21.8 58.6814 21.112 59.0974 20.552C59.5294 19.992 60.1294 19.568 60.8974 19.28C61.6814 18.976 62.6014 18.824 63.6574 18.824H66.8734C66.8734 18.088 66.7534 17.48 66.5134 17C66.2734 16.504 65.9294 16.136 65.4814 15.896C65.0334 15.64 64.4974 15.512 63.8734 15.512C63.0894 15.512 62.4094 15.712 61.8334 16.112C61.2574 16.496 60.9054 17.064 60.7774 17.816H58.7134C58.8094 16.952 59.1054 16.224 59.6014 15.632C60.0974 15.04 60.7214 14.592 61.4734 14.288C62.2414 13.968 63.0414 13.808 63.8734 13.808C64.9774 13.808 65.8974 14.016 66.6334 14.432C67.3854 14.832 67.9454 15.4 68.3134 16.136C68.6974 16.856 68.8894 17.704 68.8894 18.68V26H67.0894L66.9694 23.864C66.8094 24.2 66.6014 24.52 66.3454 24.824C66.1054 25.112 65.8174 25.368 65.4814 25.592C65.1614 25.8 64.7854 25.968 64.3534 26.096C63.9214 26.224 63.4334 26.288 62.8894 26.288ZM63.2014 24.584C63.7774 24.584 64.2894 24.472 64.7374 24.248C65.2014 24.008 65.5934 23.688 65.9134 23.288C66.2334 22.888 66.4734 22.44 66.6334 21.944C66.7934 21.448 66.8734 20.936 66.8734 20.408V20.384H63.8254C63.0414 20.384 62.4094 20.48 61.9294 20.672C61.4494 20.848 61.1054 21.096 60.8974 21.416C60.6894 21.736 60.5854 22.104 60.5854 22.52C60.5854 22.936 60.6814 23.304 60.8734 23.624C61.0814 23.928 61.3774 24.168 61.7614 24.344C62.1614 24.504 62.6414 24.584 63.2014 24.584ZM71.9373 26V8.72H73.9533V26H71.9373ZM82.6816 26.288C81.5616 26.288 80.5536 26.032 79.6576 25.52C78.7616 25.008 78.0496 24.288 77.5216 23.36C77.0096 22.416 76.7536 21.312 76.7536 20.048C76.7536 18.784 77.0176 17.688 77.5456 16.76C78.0736 15.816 78.7856 15.088 79.6816 14.576C80.5936 14.064 81.6096 13.808 82.7296 13.808C83.8496 13.808 84.8576 14.064 85.7536 14.576C86.6496 15.088 87.3536 15.816 87.8656 16.76C88.3936 17.688 88.6576 18.784 88.6576 20.048C88.6576 21.312 88.3936 22.416 87.8656 23.36C87.3376 24.288 86.6176 25.008 85.7056 25.52C84.8096 26.032 83.8016 26.288 82.6816 26.288ZM82.6816 24.56C83.3696 24.56 84.0096 24.392 84.6016 24.056C85.1936 23.72 85.6736 23.216 86.0416 22.544C86.4096 21.872 86.5936 21.04 86.5936 20.048C86.5936 19.04 86.4096 18.208 86.0416 17.552C85.6896 16.88 85.2176 16.376 84.6256 16.04C84.0336 15.704 83.4016 15.536 82.7296 15.536C82.0576 15.536 81.4176 15.704 80.8096 16.04C80.2176 16.376 79.7376 16.88 79.3696 17.552C79.0016 18.208 78.8176 19.04 78.8176 20.048C78.8176 21.04 79.0016 21.872 79.3696 22.544C79.7376 23.216 80.2096 23.72 80.7856 24.056C81.3776 24.392 82.0096 24.56 82.6816 24.56ZM91.4607 26V14.096H93.2847L93.4527 16.4C93.7087 15.856 94.0447 15.392 94.4607 15.008C94.8767 14.624 95.3727 14.328 95.9487 14.12C96.5247 13.912 97.1807 13.808 97.9167 13.808V15.92H97.3647C96.8367 15.92 96.3327 15.992 95.8527 16.136C95.3887 16.264 94.9727 16.48 94.6047 16.784C94.2527 17.088 93.9727 17.504 93.7647 18.032C93.5727 18.56 93.4767 19.216 93.4767 20V26H91.4607ZM100.395 26V14.096H102.411V26H100.395ZM101.403 11.456C101.003 11.456 100.667 11.328 100.395 11.072C100.139 10.8 100.011 10.464 100.011 10.064C100.011 9.664 100.139 9.344 100.395 9.104C100.667 8.848 101.003 8.72 101.403 8.72C101.787 8.72 102.115 8.848 102.387 9.104C102.659 9.344 102.795 9.664 102.795 10.064C102.795 10.464 102.659 10.8 102.387 11.072C102.115 11.328 101.787 11.456 101.403 11.456ZM111.274 26.288C110.138 26.288 109.13 26.032 108.25 25.52C107.37 24.992 106.674 24.264 106.162 23.336C105.666 22.392 105.418 21.296 105.418 20.048C105.418 18.784 105.666 17.688 106.162 16.76C106.658 15.832 107.346 15.112 108.226 14.6C109.122 14.072 110.154 13.808 111.322 13.808C112.49 13.808 113.49 14.072 114.322 14.6C115.154 15.112 115.794 15.792 116.242 16.64C116.69 17.472 116.914 18.384 116.914 19.376C116.914 19.536 116.914 19.712 116.914 19.904C116.914 20.08 116.906 20.28 116.89 20.504H106.93V18.944H114.922C114.874 17.872 114.506 17.032 113.818 16.424C113.146 15.816 112.298 15.512 111.274 15.512C110.586 15.512 109.946 15.664 109.354 15.968C108.762 16.272 108.282 16.72 107.914 17.312C107.562 17.888 107.386 18.616 107.386 19.496V20.168C107.386 21.144 107.57 21.96 107.938 22.616C108.306 23.272 108.786 23.768 109.378 24.104C109.97 24.424 110.602 24.584 111.274 24.584C112.106 24.584 112.802 24.392 113.362 24.008C113.922 23.624 114.33 23.104 114.586 22.448H116.578C116.37 23.184 116.026 23.84 115.546 24.416C115.066 24.992 114.466 25.448 113.746 25.784C113.042 26.12 112.218 26.288 111.274 26.288ZM119.538 26V9.2H123.402L128.634 19.664L133.794 9.2H137.658V26H134.418V14.696L129.882 23.6H127.314L122.778 14.672V26H119.538ZM146.53 26.288C145.394 26.288 144.362 26.024 143.434 25.496C142.522 24.968 141.794 24.232 141.25 23.288C140.706 22.344 140.434 21.264 140.434 20.048C140.434 18.816 140.706 17.736 141.25 16.808C141.794 15.864 142.53 15.128 143.458 14.6C144.386 14.072 145.418 13.808 146.554 13.808C147.706 13.808 148.746 14.072 149.674 14.6C150.602 15.128 151.33 15.864 151.858 16.808C152.402 17.736 152.674 18.816 152.674 20.048C152.674 21.28 152.402 22.368 151.858 23.312C151.314 24.24 150.578 24.968 149.65 25.496C148.738 26.024 147.698 26.288 146.53 26.288ZM146.554 23.48C147.066 23.48 147.53 23.352 147.946 23.096C148.378 22.84 148.722 22.456 148.978 21.944C149.25 21.432 149.386 20.8 149.386 20.048C149.386 19.28 149.258 18.648 149.002 18.152C148.746 17.64 148.402 17.256 147.97 17C147.554 16.744 147.09 16.616 146.578 16.616C146.066 16.616 145.594 16.744 145.162 17C144.73 17.256 144.386 17.64 144.13 18.152C143.874 18.648 143.746 19.28 143.746 20.048C143.746 20.8 143.874 21.432 144.13 21.944C144.386 22.456 144.722 22.84 145.138 23.096C145.57 23.352 146.042 23.48 146.554 23.48ZM155.419 26V14.096H158.275L158.515 16.088C158.883 15.4 159.411 14.848 160.099 14.432C160.787 14.016 161.611 13.808 162.571 13.808C163.563 13.808 164.403 14.024 165.091 14.456C165.779 14.872 166.307 15.488 166.675 16.304C167.043 17.12 167.227 18.128 167.227 19.328V26H163.987V19.616C163.987 18.624 163.787 17.864 163.387 17.336C162.987 16.808 162.355 16.544 161.491 16.544C160.947 16.544 160.459 16.68 160.027 16.952C159.595 17.208 159.259 17.584 159.019 18.08C158.779 18.56 158.659 19.152 158.659 19.856V26H155.419ZM170.258 26V14.096H173.498V26H170.258ZM171.866 12.368C171.29 12.368 170.81 12.2 170.426 11.864C170.058 11.512 169.874 11.072 169.874 10.544C169.874 10.016 170.058 9.584 170.426 9.248C170.81 8.896 171.29 8.72 171.866 8.72C172.458 8.72 172.938 8.896 173.306 9.248C173.69 9.584 173.882 10.016 173.882 10.544C173.882 11.072 173.69 11.512 173.306 11.864C172.938 12.2 172.458 12.368 171.866 12.368ZM182.101 26C181.253 26 180.509 25.872 179.869 25.616C179.245 25.344 178.757 24.904 178.405 24.296C178.053 23.672 177.877 22.824 177.877 21.752V16.808H175.837V14.096H177.877L178.237 10.856H181.117V14.096H184.285V16.808H181.117V21.8C181.117 22.344 181.237 22.72 181.477 22.928C181.717 23.136 182.125 23.24 182.701 23.24H184.213V26H182.101ZM192.327 26.288C191.191 26.288 190.159 26.024 189.231 25.496C188.319 24.968 187.591 24.232 187.047 23.288C186.503 22.344 186.231 21.264 186.231 20.048C186.231 18.816 186.503 17.736 187.047 16.808C187.591 15.864 188.327 15.128 189.255 14.6C190.183 14.072 191.215 13.808 192.351 13.808C193.503 13.808 194.543 14.072 195.471 14.6C196.399 15.128 197.127 15.864 197.655 16.808C198.199 17.736 198.471 18.816 198.471 20.048C198.471 21.28 198.199 22.368 197.655 23.312C197.111 24.24 196.375 24.968 195.447 25.496C194.535 26.024 193.495 26.288 192.327 26.288ZM192.351 23.48C192.863 23.48 193.327 23.352 193.743 23.096C194.175 22.84 194.519 22.456 194.775 21.944C195.047 21.432 195.183 20.8 195.183 20.048C195.183 19.28 195.055 18.648 194.799 18.152C194.543 17.64 194.199 17.256 193.767 17C193.351 16.744 192.887 16.616 192.375 16.616C191.863 16.616 191.391 16.744 190.959 17C190.527 17.256 190.183 17.64 189.927 18.152C189.671 18.648 189.543 19.28 189.543 20.048C189.543 20.8 189.671 21.432 189.927 21.944C190.183 22.456 190.519 22.84 190.935 23.096C191.367 23.352 191.839 23.48 192.351 23.48ZM201.216 26V14.096H204.096L204.408 16.328C204.696 15.816 205.048 15.376 205.464 15.008C205.896 14.624 206.384 14.328 206.928 14.12C207.488 13.912 208.096 13.808 208.752 13.808V17.24H207.864C207.368 17.24 206.904 17.296 206.472 17.408C206.056 17.52 205.696 17.704 205.392 17.96C205.088 18.216 204.856 18.568 204.696 19.016C204.536 19.448 204.456 20 204.456 20.672V26H201.216Z" fill="#0F172A"/>
<defs>
<clipPath id="clip0_333_5415">
<rect width="32" height="32" fill="white" transform="translate(0 2)"/>
</clipPath>
</defs>
</svg>
